<svg xmlns="http://www.w3.org/2000/svg" id="Component_35_1" width="104" height="24" data-name="Component 35 – 1" viewBox="0 0 104 24">
    <defs>
        <style>
            .cls-1{fill:#7f8fa4}.cls-2{fill:#1d1d26}.cls-3{fill:none}
        </style>
    </defs>
    <g id="Group_5820" data-name="Group 5820" transform="translate(-32 -16)">
        <path id="Path_45707" d="M7.6 0L4.842-4.806h-.7V0h-3.08v-12.726h5.256a5.674 5.674 0 0 1 2.556.522 3.6 3.6 0 0 1 1.566 1.431 4.1 4.1 0 0 1 .522 2.079 3.7 3.7 0 0 1-.762 2.358A3.911 3.911 0 0 1 7.974-5L11 0zM4.14-6.912h1.908A1.922 1.922 0 0 0 7.4-7.317a1.563 1.563 0 0 0 .432-1.2A1.587 1.587 0 0 0 7.389-9.7a1.848 1.848 0 0 0-1.341-.432H4.14zm17.91 1.62a4.246 4.246 0 0 1-.09.828h-6.966a2.328 2.328 0 0 0 .576 1.629 1.858 1.858 0 0 0 1.332.5 1.821 1.821 0 0 0 1.134-.342 1.6 1.6 0 0 0 .594-.882h3.258a4.257 4.257 0 0 1-.864 1.9 4.6 4.6 0 0 1-1.692 1.308 5.357 5.357 0 0 1-2.286.477A5.4 5.4 0 0 1 14.427-.5a4.437 4.437 0 0 1-1.791-1.791 5.557 5.557 0 0 1-.648-2.736 5.607 5.607 0 0 1 .639-2.745 4.379 4.379 0 0 1 1.791-1.782 5.45 5.45 0 0 1 2.628-.621 5.448 5.448 0 0 1 2.628.612 4.324 4.324 0 0 1 1.755 1.719 5.117 5.117 0 0 1 .621 2.552zm-3.114-.468a1.85 1.85 0 0 0-.536-1.485 1.955 1.955 0 0 0-1.359-.5 2.016 2.016 0 0 0-1.4.5 2.11 2.11 0 0 0-.63 1.476zm8.37-4.41a4.608 4.608 0 0 1 3.051.954A4.145 4.145 0 0 1 31.788-6.7h-2.88a1.6 1.6 0 0 0-.567-.963 1.722 1.722 0 0 0-1.107-.351 1.21 1.21 0 0 0-.792.225.785.785 0 0 0-.27.639.75.75 0 0 0 .495.7 7.893 7.893 0 0 0 1.557.468 15.462 15.462 0 0 1 1.89.549 3.118 3.118 0 0 1 1.278.909 2.512 2.512 0 0 1 .54 1.692 2.6 2.6 0 0 1-.468 1.53 3.081 3.081 0 0 1-1.35 1.044 5.275 5.275 0 0 1-2.088.378 5.377 5.377 0 0 1-3.258-.9 3.8 3.8 0 0 1-1.494-2.574h2.97a1.337 1.337 0 0 0 .549.99 2.067 2.067 0 0 0 1.233.342 1.148 1.148 0 0 0 .792-.243.819.819 0 0 0 .27-.639.768.768 0 0 0-.5-.747 9.1 9.1 0 0 0-1.611-.477 12.882 12.882 0 0 1-1.836-.5A3.031 3.031 0 0 1 23.9-5.5a2.432 2.432 0 0 1-.522-1.647 2.688 2.688 0 0 1 1.026-2.187 4.471 4.471 0 0 1 2.902-.836zM39.33-2.646V0h-1.386A3.988 3.988 0 0 1 35.2-.873a3.7 3.7 0 0 1-.981-2.889v-3.69h-1.35v-2.592h1.35v-2.466H37.3v2.466h2.016v2.592H37.3v3.744a1.128 1.128 0 0 0 .243.828 1.162 1.162 0 0 0 .819.234z" class="cls-1" data-name="Path 45707" transform="translate(32 34)"/>
        <path id="Path_45708" d="M4.878-10.17a3.636 3.636 0 0 1 1.98.522 3.138 3.138 0 0 1 1.224 1.422v-1.818h3.06V0h-3.06v-1.818A3.138 3.138 0 0 1 6.858-.4a3.636 3.636 0 0 1-1.98.522A4.068 4.068 0 0 1 2.655-.5a4.249 4.249 0 0 1-1.548-1.786A6.207 6.207 0 0 1 .54-5.022a6.193 6.193 0 0 1 .567-2.745 4.259 4.259 0 0 1 1.548-1.782 4.068 4.068 0 0 1 2.223-.621zm.99 2.7a2.073 2.073 0 0 0-1.593.648 2.54 2.54 0 0 0-.6 1.8 2.54 2.54 0 0 0 .6 1.8 2.073 2.073 0 0 0 1.593.648 2.081 2.081 0 0 0 1.593-.666 2.508 2.508 0 0 0 .621-1.782 2.5 2.5 0 0 0-.621-1.791 2.1 2.1 0 0 0-1.593-.657zm17.388-2.574V0h-3.1v-1.818a3.337 3.337 0 0 1-1.287 1.4 3.74 3.74 0 0 1-1.989.522 3.477 3.477 0 0 1-2.745-1.152 4.621 4.621 0 0 1-1.017-3.168v-5.832h3.06v5.458A2.241 2.241 0 0 0 16.713-3a1.866 1.866 0 0 0 1.431.567 1.9 1.9 0 0 0 1.476-.594 2.428 2.428 0 0 0 .54-1.692v-5.328zm5.2 1.89a4.368 4.368 0 0 1 1.485-1.458 3.791 3.791 0 0 1 1.971-.54v3.294h-.882a3.042 3.042 0 0 0-1.9.522 2.1 2.1 0 0 0-.675 1.764V0H25.38v-10.044h3.078zm8.568-2.016a3.636 3.636 0 0 1 1.98.522 3.138 3.138 0 0 1 1.226 1.422v-1.818h3.06V0h-3.06v-1.818A3.138 3.138 0 0 1 39.006-.4a3.636 3.636 0 0 1-1.98.522A4.068 4.068 0 0 1 34.8-.5a4.249 4.249 0 0 1-1.548-1.791 6.207 6.207 0 0 1-.567-2.736 6.193 6.193 0 0 1 .567-2.745A4.259 4.259 0 0 1 34.8-9.549a4.068 4.068 0 0 1 2.226-.621zm.99 2.7a2.073 2.073 0 0 0-1.593.648 2.54 2.54 0 0 0-.6 1.8 2.54 2.54 0 0 0 .6 1.8 2.073 2.073 0 0 0 1.593.648 2.081 2.081 0 0 0 1.593-.666 2.508 2.508 0 0 0 .621-1.782 2.5 2.5 0 0 0-.621-1.791 2.1 2.1 0 0 0-1.591-.657zm13.77-2.682A3.477 3.477 0 0 1 54.531-9a4.621 4.621 0 0 1 1.017 3.168V0H52.47v-5.472a2.214 2.214 0 0 0-.531-1.575 1.844 1.844 0 0 0-1.413-.567 1.923 1.923 0 0 0-1.485.594 2.4 2.4 0 0 0-.549 1.692V0h-3.078v-10.044h3.078v1.836a3.313 3.313 0 0 1 1.287-1.422 3.775 3.775 0 0 1 2.007-.522zM63.27-2.646V0h-1.386a3.988 3.988 0 0 1-2.745-.873 3.7 3.7 0 0 1-.981-2.889v-3.69h-1.35v-2.592h1.35v-2.466h3.078v2.466h2.016v2.592h-2.016v3.744a1.128 1.128 0 0 0 .243.828 1.162 1.162 0 0 0 .819.234z" class="cls-2" data-name="Path 45708" transform="translate(72 34)"/>
    </g>
    <path id="Rectangle_1518" d="M0 0h104v24H0z" class="cls-3" data-name="Rectangle 1518"/>
</svg>
